<?xml version="1.0" standalone="no"?>
<!DOCTYPE svg PUBLIC "-//W3C//DTD SVG 20010904//EN"
 "http://www.w3.org/TR/2001/REC-SVG-20010904/DTD/svg10.dtd">
<svg version="1.0" xmlns="http://www.w3.org/2000/svg"
 width="1536.000000pt" height="1024.000000pt" viewBox="0 0 1536.000000 1024.000000"
 preserveAspectRatio="xMidYMid meet">

<g transform="translate(0.000000,1024.000000) scale(0.100000,-0.100000)"
fill="#000000" stroke="none">
<path d="M7125 7990 c1129 -7 1321 -12 1343 -36 4 -4 -9 -4 -28 0 -42 8 -306
17 -270 9 23 -5 24 -6 5 -14 -17 -6 -17 -8 -2 -8 9 -1 17 -6 17 -12 0 -5 -3
-8 -8 -5 -4 2 -23 1 -42 -4 -32 -7 -33 -9 -12 -15 19 -6 20 -10 10 -23 -11
-13 -11 -14 1 -7 16 9 8 -8 -17 -37 -17 -20 -3 -24 17 -5 8 6 3 -3 -9 -20 -13
-18 -30 -33 -37 -33 -16 0 -17 16 -1 26 7 5 8 3 3 -6 -5 -8 -4 -11 3 -6 6 3
11 14 10 24 0 9 2 27 5 39 4 14 -1 26 -11 34 -14 11 -15 11 -6 0 13 -14 7 -51
-7 -51 -5 0 -9 -7 -9 -16 0 -8 -5 -25 -11 -36 l-11 -21 -17 20 c-16 20 -16 20
-33 2 -10 -11 -13 -19 -8 -19 19 0 10 -18 -11 -23 -13 -4 -18 -10 -13 -18 4
-8 3 -10 -4 -5 -7 4 -12 2 -12 -3 0 -6 -7 -11 -15 -11 -9 0 -18 -7 -21 -15 -4
-8 -11 -12 -17 -8 -6 3 -3 -4 6 -17 12 -17 13 -28 6 -42 -5 -10 -7 -18 -3 -18
3 0 2 -6 -4 -12 -5 -7 -8 -23 -6 -35 4 -26 -11 -40 -20 -17 -3 8 -2 12 4 9 6
-3 7 1 3 10 -3 9 -9 12 -12 7 -10 -15 -51 -25 -51 -12 0 7 -8 6 -22 -4 -19
-14 -23 -14 -35 2 -13 15 -13 15 -3 -5 6 -14 7 -23 1 -23 -5 0 -8 -8 -6 -17 1
-11 11 -18 24 -17 11 0 21 -5 21 -12 0 -16 -32 -13 -46 5 -8 10 -13 11 -18 3
-4 -7 -2 -12 4 -12 6 0 8 -5 5 -10 -4 -6 -10 -8 -15 -5 -5 3 -11 1 -15 -5 -3
-5 -1 -10 4 -10 6 0 11 -4 11 -10 0 -18 -18 -11 -25 10 -3 11 -11 20 -17 20
-6 0 -8 -3 -5 -7 4 -3 -1 -11 -9 -18 -9 -6 -17 -27 -18 -47 -1 -32 -4 -35 -26
-33 -14 1 -34 5 -45 10 -11 4 -5 -3 13 -15 40 -27 41 -31 2 -17 -35 13 -46 6
-30 -20 11 -17 11 -17 6 1 -6 16 -4 17 9 6 15 -12 15 -14 -1 -23 -11 -6 -19
-5 -24 3 -11 18 -41 5 -34 -15 3 -8 10 -15 15 -15 5 0 9 -7 9 -15 0 -8 -5 -15
-11 -15 -5 0 -7 -4 -4 -10 3 -5 1 -10 -5 -10 -6 0 -8 -5 -4 -12 6 -10 5 -10
-7 -1 -11 9 -19 9 -26 2 -7 -7 -10 0 -9 21 1 18 8 37 16 43 21 16 22 34 4 41
-10 4 -13 2 -8 -6 4 -6 -1 -17 -11 -24 -10 -7 -15 -20 -12 -28 4 -9 -2 -21
-14 -30 -15 -10 -17 -15 -7 -19 10 -4 10 -6 1 -6 -7 -1 -13 -8 -13 -18 0 -9 3
-14 6 -11 3 4 19 2 35 -2 17 -5 31 -5 35 1 3 5 10 7 15 4 5 -4 9 0 9 7 0 10 2
10 8 1 6 -9 67 -14 221 -18 118 -2 216 -7 219 -10 3 -3 -251 -5 -565 -5 l-570
0 -36 -29 -37 -28 0 -839 c0 -460 -2 -840 -5 -842 -3 -3 -5 197 -5 444 l0 450
-27 1 c-16 0 -20 -1 -10 -4 18 -5 25 -43 7 -43 -5 0 -7 6 -4 14 3 7 -2 16 -10
19 -10 4 -16 19 -16 38 0 26 -3 30 -17 24 -10 -4 -29 -7 -43 -6 l-25 1 25 -17
c17 -12 25 -13 28 -5 2 7 9 12 15 12 7 0 5 -6 -4 -15 -12 -12 -22 -14 -42 -6
-30 11 -41 -3 -23 -31 13 -22 0 -36 -17 -18 -10 10 -9 11 3 5 13 -8 13 -7 1 8
-14 18 -23 22 -19 10 2 -5 -1 -9 -7 -10 -5 -1 -10 6 -9 16 0 16 -3 17 -17 8
-15 -10 -16 -14 -5 -27 8 -9 11 -23 7 -34 -7 -17 -8 -17 -14 -3 -3 8 -1 18 6
21 7 2 -1 5 -17 5 -28 1 -29 0 -10 -14 19 -15 19 -15 -1 -31 -11 -8 -19 -21
-17 -27 3 -9 0 -9 -9 0 -10 10 -9 15 1 28 10 13 11 18 1 28 -10 9 -12 9 -9 -3
2 -9 -5 -16 -17 -16 -11 -1 -24 -2 -29 -3 -5 -1 -3 -8 4 -16 7 -8 17 -12 22
-9 6 4 5 -3 -1 -15 -7 -11 -14 -21 -17 -21 -3 0 -3 4 0 9 3 5 -1 14 -9 21 -13
11 -14 10 -8 -6 6 -17 5 -18 -13 -4 -18 14 -18 14 -1 -6 24 -28 22 -41 -3 -19
-17 15 -20 16 -15 3 4 -9 1 -19 -6 -24 -8 -4 -10 -3 -5 4 11 18 -11 14 -34 -5
-20 -17 -24 -19 -54 -22 -9 -1 -12 -8 -9 -21 6 -22 -12 -28 -20 -7 -4 7 -6 6
-6 -5 -1 -9 -4 -24 -7 -32 -5 -12 -2 -15 10 -10 9 3 16 2 16 -4 0 -5 -7 -13
-16 -16 -22 -8 -24 -8 -22 7 2 6 -4 11 -12 9 -8 -2 -23 -4 -32 -5 -10 -1 -18
-5 -18 -9 0 -4 -8 -8 -17 -7 -11 0 -13 3 -5 6 6 2 12 11 12 19 0 8 5 14 10 14
6 0 10 -4 10 -9 0 -6 11 -6 29 0 27 10 35 29 17 46 -4 4 -7 4 -6 -2 8 -36 -18
-46 -32 -12 -4 9 -15 17 -25 16 -17 0 -17 -1 0 -8 16 -6 17 -9 5 -18 -7 -6
-17 -12 -23 -12 -5 -1 -10 -16 -10 -35 0 -43 -9 -53 -32 -35 -16 12 -17 12 -6
-1 13 -18 0 -42 -30 -53 -10 -4 -15 -12 -11 -18 4 -8 9 -7 15 2 10 16 10 15
14 -31 1 -19 0 -29 -2 -22 -6 14 -33 16 -33 2 0 -5 -5 -10 -11 -10 -5 0 -7 4
-4 10 3 5 0 7 -7 5 -8 -3 -14 -15 -15 -25 -1 -11 3 -18 8 -15 13 9 59 16 59
10 0 -2 -15 -8 -32 -13 -18 -4 -33 -13 -33 -19 0 -6 -4 -15 -9 -20 -5 -4 -6
-3 -3 3 4 7 -2 14 -13 17 -15 4 -20 0 -20 -14 0 -10 5 -19 10 -19 6 0 10 -5
10 -10 0 -6 -8 -5 -19 2 -11 7 -17 16 -14 22 4 5 1 6 -6 2 -9 -6 -8 -12 4 -26
14 -16 14 -18 0 -23 -9 -4 -15 -1 -15 8 0 7 -4 17 -10 20 -6 4 -7 -1 -3 -11 5
-13 3 -16 -9 -11 -9 3 -24 -1 -35 -9 -10 -9 -13 -13 -6 -10 6 4 14 2 18 -4 4
-6 10 -8 15 -5 5 3 11 1 15 -4 3 -6 -3 -8 -15 -6 -17 3 -19 1 -10 -15 8 -16 6
-18 -14 -16 -17 2 -26 -3 -29 -15 -3 -11 0 -19 5 -19 6 0 5 -6 -2 -15 -10 -12
-10 -18 0 -30 10 -12 10 -15 -3 -15 -9 0 -18 8 -20 18 -4 14 -5 14 -6 -3 -1
-17 -3 -18 -11 -5 -6 10 -11 -184 -12 -560 -2 -316 -5 190 -8 1125 l-5 1700 0
-1820 c0 -1721 1 -1822 18 -1852 36 -67 39 -68 470 -71 349 -3 391 -1 423 14
68 32 64 -65 64 1514 l0 1432 30 29 29 30 748 -3 748 -4 92 -27 c147 -42 258
-106 363 -208 30 -29 59 -52 63 -51 5 1 5 -2 2 -8 -4 -6 0 -19 8 -28 30 -34
76 -129 98 -202 29 -96 32 -262 5 -359 -67 -245 -258 -418 -533 -482 -82 -19
-130 -21 -671 -26 l-583 -5 -29 -28 -30 -28 0 -350 c0 -337 1 -350 20 -375 12
-15 38 -31 58 -37 48 -13 870 -13 1097 0 313 19 548 77 790 196 434 214 716
575 816 1044 30 142 33 436 5 580 -54 280 -166 503 -350 698 -86 91 -283 245
-303 237 -7 -2 -12 1 -10 8 3 18 -271 151 -396 191 -137 44 -259 71 -420 93
-107 14 -271 16 -1322 18 l-1200 1 1200 -6z m1500 -55 l60 -14 -51 5 c-28 3
-75 12 -105 19 -53 14 -53 14 -9 9 25 -3 72 -12 105 -19z m-269 -12 c-6 -6
-36 9 -36 18 0 5 9 4 20 -3 10 -7 18 -14 16 -15z m419 -23 c13 -5 14 -9 5 -9
-8 0 -24 4 -35 9 -13 5 -14 9 -5 9 8 0 24 -4 35 -9z m80 -20 c13 -6 15 -9 5
-9 -8 0 -22 4 -30 9 -18 12 -2 12 25 0z m82 -36 c-5 -5 -57 13 -57 20 0 3 14
0 31 -6 16 -6 28 -12 26 -14z m-794 -49 c-3 -9 -8 -14 -10 -11 -3 3 -2 9 2 15
9 16 15 13 8 -4z m-110 -42 c-7 -2 -13 -9 -13 -14 0 -6 7 -6 19 0 15 9 20 7
24 -9 3 -11 1 -18 -4 -14 -5 3 -9 -2 -9 -10 0 -21 -18 -30 -35 -16 -9 7 -15 8
-20 0 -3 -5 -12 -10 -18 -10 -7 0 -3 7 7 15 11 8 16 18 13 22 -9 8 22 43 37
42 6 0 6 -3 -1 -6z m92 -13 c8 -13 -5 -13 -25 0 -13 8 -13 10 2 10 9 0 20 -4
23 -10z m-71 -78 c3 -5 -1 -9 -9 -9 -8 0 -12 4 -9 9 3 4 7 8 9 8 2 0 6 -4 9
-8z m-224 -123 c0 -5 4 -8 8 -5 4 2 9 -5 9 -17 2 -17 0 -19 -7 -7 -5 8 -10 11
-10 5 0 -5 -5 -3 -10 5 -13 19 -13 30 0 30 6 0 10 -5 10 -11z m-33 -24 c-15
-16 -22 -11 -13 10 3 9 10 13 16 10 6 -4 5 -11 -3 -20z m-93 -87 c-3 -4 2 -8
12 -8 13 0 14 -3 4 -15 -7 -8 -20 -14 -29 -14 -13 1 -12 2 2 6 17 4 17 6 3 22
-14 15 -14 18 -1 18 8 0 12 -4 9 -9z m90 -14 c3 -8 2 -12 -4 -9 -6 3 -10 10
-10 16 0 14 7 11 14 -7z m-200 -132 c3 -5 -1 -9 -9 -9 -8 0 -12 4 -9 9 3 4 7
8 9 8 2 0 6 -4 9 -8z m441 -112 c3 -5 -1 -10 -10 -10 -9 0 -13 5 -10 10 3 6 8
10 10 10 2 0 7 -4 10 -10z m103 -7 c-10 -2 -26 -2 -35 0 -10 3 -2 5 17 5 19 0
27 -2 18 -5z m80 0 c-10 -2 -28 -2 -40 0 -13 2 -5 4 17 4 22 1 32 -1 23 -4z
m-1563 -853 c3 -6 -1 -7 -9 -4 -18 7 -21 14 -7 14 6 0 13 -4 16 -10z m29 -19
c3 -5 -2 -15 -12 -22 -15 -12 -16 -12 -5 2 7 9 10 19 6 22 -3 4 -4 7 0 7 3 0
8 -4 11 -9z m-67 -57 c-3 -3 -12 -4 -19 -1 -8 3 -5 6 6 6 11 1 17 -2 13 -5z
m-173 -93 c3 -5 -1 -11 -9 -15 -9 -3 -15 0 -15 9 0 16 16 20 24 6z m-81 -18
c-14 -41 -43 -58 -43 -25 0 14 2 15 10 2 7 -11 11 -9 19 13 11 29 24 38 14 10z
m37 7 c0 -5 -2 -10 -4 -10 -3 0 -8 5 -11 10 -3 6 -1 10 4 10 6 0 11 -4 11 -10z
m-15 -29 c3 -5 2 -12 -3 -15 -5 -3 -9 1 -9 9 0 17 3 19 12 6z m-225 -161 c0
-11 -6 -22 -12 -26 -7 -4 -10 -4 -6 1 4 4 0 14 -10 21 -11 9 -13 13 -4 14 7 0
10 4 7 10 -3 6 1 7 9 4 9 -3 16 -14 16 -24z m-233 -306 c-3 -3 -12 -4 -19 -1
-8 3 -5 6 6 6 11 1 17 -2 13 -5z m860 -326 c-3 -8 -6 -5 -6 6 -1 11 2 17 5 13
3 -3 4 -12 1 -19z m-950 -890 c-3 -8 -6 -5 -6 6 -1 11 2 17 5 13 3 -3 4 -12 1
-19z"/>
<path d="M8027 7723 c-10 -3 -16 -10 -14 -16 6 -20 24 -18 30 3 3 11 4 19 4
19 -1 -1 -10 -3 -20 -6z"/>
<path d="M5854 7948 l-19 -23 23 19 c21 18 27 26 19 26 -2 0 -12 -10 -23 -22z"/>
<path d="M9835 7915 c-33 -33 -34 -87 -1 -120 23 -23 47 -31 276 -95 405 -113
678 -322 798 -612 44 -106 63 -213 63 -354 0 -199 -43 -366 -137 -541 -50 -95
-56 -138 -21 -171 45 -42 231 -142 264 -142 37 0 78 33 69 56 -4 10 -2 12 6 8
8 -5 9 -2 5 10 -4 9 -3 15 2 12 12 -8 84 162 77 180 -3 8 -2 13 2 10 13 -8 44
101 37 127 -5 16 -4 18 3 8 10 -14 13 -2 43 149 8 39 13 136 12 245 0 160 -3
191 -26 277 -31 118 -101 273 -118 262 -8 -4 -9 -3 -5 5 10 15 -41 94 -54 86
-5 -3 -7 0 -5 8 12 31 -269 298 -296 281 -7 -4 -9 -3 -5 4 13 22 -246 158
-415 217 -159 55 -425 115 -512 115 -27 0 -45 -7 -62 -25z m1482 -1077 c-3 -7
-5 -2 -5 12 0 14 2 19 5 13 2 -7 2 -19 0 -25z m0 -330 c-3 -8 -6 -5 -6 6 -1
11 2 17 5 13 3 -3 4 -12 1 -19z"/>
<path d="M7965 7830 c-4 -6 -3 -10 2 -9 20 3 25 -2 13 -16 -7 -8 -16 -13 -20
-10 -5 3 -6 -4 -3 -15 5 -18 2 -20 -21 -16 -23 4 -25 2 -16 -14 13 -25 32 -36
24 -15 -5 12 -2 16 12 13 14 -2 19 3 18 20 0 13 5 22 14 22 9 0 12 3 9 7 -4 3
-1 13 5 22 7 9 8 13 4 9 -5 -4 -15 -3 -22 3 -8 7 -14 7 -19 -1z"/>
<path d="M7926 7807 c3 -10 9 -15 12 -12 3 3 0 11 -7 18 -10 9 -11 8 -5 -6z"/>
<path d="M7809 7603 c-13 -17 -13 -17 6 -3 11 8 22 16 24 17 2 2 0 3 -6 3 -6
0 -17 -8 -24 -17z"/>
<path d="M7843 7596 c-6 -8 -9 -17 -6 -20 12 -11 19 -6 20 14 2 23 2 23 -14 6z"/>
<path d="M7875 7600 c3 -5 10 -10 16 -10 5 0 9 5 9 10 0 6 -7 10 -16 10 -8 0
-12 -4 -9 -10z"/>
<path d="M7725 7509 c-11 -16 -1 -19 13 -3 7 8 8 14 3 14 -5 0 -13 -5 -16 -11z"/>
<path d="M7635 7389 c-11 -17 1 -21 15 -4 8 9 8 15 2 15 -6 0 -14 -5 -17 -11z"/>
<path d="M7467 7313 c-4 -3 -7 -13 -7 -22 1 -13 3 -13 11 2 11 19 8 33 -4 20z"/>
<path d="M7505 7270 c-3 -5 2 -10 12 -11 16 0 16 -1 -1 -8 -16 -6 -17 -9 -5
-13 9 -4 21 2 28 14 7 11 8 17 2 13 -6 -3 -11 -1 -11 4 0 14 -17 14 -25 1z"/>
<path d="M7435 7260 c-4 -6 -5 -10 -3 -11 25 -6 38 -6 38 1 0 12 -29 20 -35
10z"/>
<path d="M5439 6473 l-34 -38 38 34 c20 19 37 36 37 38 0 8 -8 0 -41 -34z"/>
<path d="M5290 6333 l-95 -98 98 95 c90 88 102 100 94 100 -1 0 -45 -44 -97
-97z"/>
<path d="M6705 6421 c6 -11 4 -13 -9 -8 -9 4 -15 3 -11 -2 3 -5 -2 -17 -11
-25 -14 -15 -14 -16 5 -16 15 0 19 4 14 18 -6 14 -4 15 8 5 13 -11 15 -9 14 7
-1 11 -5 23 -10 27 -4 5 -4 2 0 -6z"/>
<path d="M5520 6370 c-23 -27 -40 -50 -37 -50 3 0 24 23 47 50 23 28 40 50 37
50 -3 0 -24 -22 -47 -50z"/>
<path d="M6638 6403 c6 -2 18 -2 25 0 6 3 1 5 -13 5 -14 0 -19 -2 -12 -5z"/>
<path d="M6600 6349 c0 -5 5 -7 10 -4 6 3 10 8 10 11 0 2 -4 4 -10 4 -5 0 -10
-5 -10 -11z"/>
<path d="M5433 6263 c-51 -63 -116 -153 -110 -153 3 0 22 24 43 53 21 28 55
73 77 100 21 26 37 47 34 47 -3 0 -23 -21 -44 -47z"/>
<path d="M6397 6237 c-16 -6 -26 -16 -23 -24 3 -7 1 -13 -4 -13 -6 0 -9 -10
-9 -22 1 -17 2 -19 6 -5 2 9 9 17 15 17 5 0 8 6 5 13 -2 6 10 20 27 29 35 19
26 22 -17 5z"/>
<path d="M5145 6178 l-40 -43 43 40 c23 21 42 40 42 42 0 8 -9 0 -45 -39z"/>
<path d="M6330 6174 c0 -8 5 -12 10 -9 6 4 8 11 5 16 -9 14 -15 11 -15 -7z"/>
<path d="M6285 6152 c3 -3 -3 -10 -11 -17 -14 -10 -14 -12 -2 -12 9 0 20 8 26
17 8 13 7 17 -4 17 -8 0 -12 -3 -9 -5z"/>
<path d="M5063 6086 c-48 -55 -145 -182 -106 -140 41 46 153 184 149 184 -2 0
-22 -20 -43 -44z"/>
<path d="M5298 6083 c-20 -25 -49 -73 -44 -73 3 0 18 20 35 45 31 46 35 58 9
28z"/>
<path d="M5206 5945 c-9 -14 -23 -37 -32 -52 l-16 -28 20 24 c24 29 55 81 49
81 -3 0 -12 -11 -21 -25z"/>
<path d="M6065 5960 c-4 -6 -10 -8 -15 -5 -4 3 -13 -2 -19 -9 -21 -26 6 -26
29 -1 13 14 21 25 17 25 -3 0 -9 -5 -12 -10z"/>
<path d="M4909 5893 c-29 -35 -41 -53 -36 -53 2 0 17 16 31 35 28 36 31 49 5
18z"/>
<path d="M5995 5899 c-4 -6 -5 -12 -2 -15 2 -3 7 2 10 11 7 17 1 20 -8 4z"/>
<path d="M6068 5903 c7 -3 16 -2 19 1 4 3 -2 6 -13 5 -11 0 -14 -3 -6 -6z"/>
<path d="M10395 5866 c-164 -41 -284 -164 -315 -324 -46 -234 90 -445 325
-507 238 -62 481 79 541 315 44 174 -21 353 -164 452 -92 63 -271 93 -387 64z"/>
<path d="M6015 5860 c3 -5 8 -10 11 -10 2 0 4 5 4 10 0 6 -5 10 -11 10 -5 0
-7 -4 -4 -10z"/>
<path d="M5975 5850 c-3 -6 1 -7 9 -4 18 7 21 14 7 14 -6 0 -13 -4 -16 -10z"/>
<path d="M5097 5768 c-36 -63 -79 -150 -75 -153 2 -2 26 41 55 96 53 101 65
133 20 57z"/>
<path d="M4802 5743 c-26 -38 -34 -53 -29 -53 2 0 16 18 31 40 29 45 28 56 -2
13z"/>
<path d="M5885 5720 c-16 -7 -17 -9 -3 -9 9 -1 20 4 23 9 7 11 7 11 -20 0z"/>
<path d="M4750 5660 c-6 -11 -8 -20 -6 -20 3 0 10 9 16 20 6 11 8 20 6 20 -3
0 -10 -9 -16 -20z"/>
<path d="M5847 5649 c7 -7 15 -10 18 -7 3 3 -2 9 -12 12 -14 6 -15 5 -6 -5z"/>
<path d="M4660 5500 c-17 -33 -28 -60 -25 -60 2 0 18 27 35 60 17 33 28 60 25
60 -2 0 -18 -27 -35 -60z"/>
<path d="M4982 5535 c-17 -37 -14 -45 4 -12 9 16 14 31 11 33 -2 2 -9 -7 -15
-21z"/>
<path d="M4941 5429 c-6 -18 -9 -34 -7 -36 2 -2 9 10 15 28 6 18 9 34 7 36 -2
2 -9 -10 -15 -28z"/>
<path d="M4612 5405 c-17 -37 -14 -45 4 -12 9 16 14 31 11 33 -2 2 -9 -7 -15
-21z"/>
<path d="M4582 5335 c-17 -37 -14 -45 4 -12 9 16 14 31 11 33 -2 2 -9 -7 -15
-21z"/>
<path d="M4906 5324 c-4 -14 -5 -28 -3 -31 3 -2 8 8 11 23 4 14 5 28 3 31 -3
2 -8 -8 -11 -23z"/>
<path d="M4892 5260 c0 -14 2 -19 5 -12 2 6 2 18 0 25 -3 6 -5 1 -5 -13z"/>
<path d="M4881 5214 c0 -11 3 -14 6 -6 3 7 2 16 -1 19 -3 4 -6 -2 -5 -13z"/>
<path d="M4872 5165 c0 -16 2 -22 5 -12 2 9 2 23 0 30 -3 6 -5 -1 -5 -18z"/>
<path d="M4511 5134 c0 -11 3 -14 6 -6 3 7 2 16 -1 19 -3 4 -6 -2 -5 -13z"/>
<path d="M9844 5127 c-47 -28 -93 -70 -87 -80 3 -6 1 -7 -6 -3 -7 5 -47 -19
-99 -57 -607 -450 -1694 -887 -2602 -1047 -58 -10 -127 -21 -155 -24 -27 -4
-108 -13 -180 -22 -160 -20 -556 -23 -700 -5 -146 18 -284 48 -386 82 -49 16
-95 27 -102 23 -7 -4 -8 -3 -4 2 12 13 -155 91 -192 89 -17 -1 -29 0 -26 3 3
3 -13 18 -36 35 -22 16 -37 32 -34 35 3 3 15 -4 28 -14 29 -27 78 -57 83 -52
2 2 -25 23 -59 45 -70 46 -190 162 -250 241 -22 29 -57 85 -78 125 -40 76 -51
86 -21 20 26 -58 81 -143 125 -192 32 -35 37 -45 26 -53 -11 -8 -11 -9 2 -5
20 6 74 -46 74 -71 0 -11 7 -16 22 -15 11 1 27 -5 35 -14 12 -15 9 -15 -26 -9
-36 7 -38 6 -33 -14 5 -20 4 -21 -12 -6 -10 9 -22 16 -28 16 -6 0 -10 10 -9
23 1 13 -4 21 -12 19 -8 -1 -11 1 -8 6 2 4 1 14 -3 21 -5 7 -8 1 -9 -19 0 -17
4 -28 9 -25 5 4 9 -1 9 -10 0 -10 -6 -15 -12 -12 -22 8 -58 -11 -52 -27 7 -18
31 -10 37 12 3 12 5 10 6 -5 1 -14 -5 -23 -14 -23 -8 0 -15 -5 -15 -11 0 -5
-4 -8 -8 -5 -4 2 -13 -4 -20 -14 -10 -16 -9 -21 6 -30 12 -8 12 -10 2 -7 -8 2
-22 -8 -31 -23 -14 -23 -23 -26 -63 -25 -25 1 -46 -2 -46 -8 0 -5 7 -7 15 -3
8 3 15 1 15 -5 0 -6 7 -9 15 -5 22 8 18 -2 -6 -15 -15 -8 -19 -8 -15 0 4 7 -1
11 -13 11 -21 0 -24 6 -23 45 0 18 -2 18 -19 -4 -11 -13 -19 -29 -19 -36 0 -7
-7 -16 -16 -19 -13 -5 -14 -1 -9 27 4 18 4 28 -1 24 -5 -5 -10 -24 -10 -43 -1
-27 1 -32 11 -24 8 6 16 7 19 2 9 -14 -4 -21 -31 -16 -17 3 -24 1 -20 -8 2 -7
0 -21 -5 -30 -7 -14 -5 -16 8 -11 12 4 15 2 12 -8 -7 -18 10 -51 23 -44 5 4
12 -2 16 -12 3 -10 13 -27 21 -38 8 -11 -17 12 -56 52 -99 100 -175 207 -234
326 -27 56 -46 91 -42 77 4 -14 26 -63 49 -110 85 -170 237 -344 402 -462 81
-58 100 -68 87 -45 -4 7 -3 9 2 4 5 -5 9 -13 9 -19 0 -16 187 -119 208 -114 9
2 15 0 12 -4 -12 -19 270 -111 454 -149 186 -39 330 -53 601 -58 513 -11 961
46 1494 188 628 167 1172 403 1731 751 204 127 301 195 297 208 -1 7 2 9 8 5
11 -7 177 111 201 143 13 16 12 16 -6 2 -20 -15 -20 -14 -1 8 20 23 32 30 21
12 -11 -17 11 -11 28 8 10 10 14 22 10 27 -5 4 -3 5 3 2 30 -17 124 97 124
150 0 20 -4 32 -10 28 -5 -3 -7 0 -5 7 7 16 -35 58 -61 63 -11 1 -18 7 -17 12
3 14 -221 221 -252 233 -33 13 -45 12 -71 -3z m-4717 -1039 c-3 -7 -5 -2 -5
12 0 14 2 19 5 13 2 -7 2 -19 0 -25z m-39 -3 c-6 -14 -13 -23 -15 -21 -5 5 15
46 22 46 3 0 -1 -11 -7 -25z m342 -51 c0 -2 -13 2 -30 11 -16 9 -30 18 -30 21
0 2 14 -2 30 -11 17 -9 30 -18 30 -21z m-419 -27 c-10 -9 -11 -8 -5 6 3 10 9
15 12 12 3 -3 0 -11 -7 -18z m-141 -27 c0 -5 -2 -10 -4 -10 -3 0 -8 5 -11 10
-3 6 -1 10 4 10 6 0 11 -4 11 -10z m127 -5 c0 -8 -4 -12 -9 -9 -5 3 -6 10 -3
15 9 13 12 11 12 -6z m-101 -29 c0 -15 -5 -21 -10 -16 -5 5 -6 16 -3 24 9 23
15 19 13 -8z m74 4 c6 -11 8 -20 6 -20 -3 0 -10 9 -16 20 -6 11 -8 20 -6 20 3
0 10 -9 16 -20z m-53 -204 c-1 -6 4 -10 11 -8 8 1 11 -1 9 -5 -3 -5 17 -25 45
-46 28 -20 47 -37 43 -37 -10 0 -97 64 -118 87 -14 16 -14 20 -3 20 8 0 14 -5
13 -11z m248 -184 c-3 -3 -11 0 -18 7 -9 10 -8 11 6 5 10 -3 15 -9 12 -12z
m40 -20 c-3 -3 -11 0 -18 7 -9 10 -8 11 6 5 10 -3 15 -9 12 -12z"/>
<path d="M4863 5095 c0 -22 2 -30 4 -17 2 12 2 30 0 40 -3 9 -5 -1 -4 -23z"/>
<path d="M4491 5064 c0 -11 3 -14 6 -6 3 7 2 16 -1 19 -3 4 -6 -2 -5 -13z"/>
<path d="M4482 5020 c0 -14 2 -19 5 -12 2 6 2 18 0 25 -3 6 -5 1 -5 -13z"/>
<path d="M4851 4940 c0 -58 4 -123 8 -145 4 -23 6 16 4 95 -6 166 -11 192 -12
50z"/>
<path d="M4472 4970 c0 -14 2 -19 5 -12 2 6 2 18 0 25 -3 6 -5 1 -5 -13z"/>
<path d="M4462 4905 c0 -16 2 -22 5 -12 2 9 2 23 0 30 -3 6 -5 -1 -5 -18z"/>
<path d="M4454 4695 c0 -88 2 -123 3 -77 2 46 2 118 0 160 -1 42 -3 5 -3 -83z"/>
<path d="M4871 4729 c0 -13 4 -33 9 -44 7 -14 8 -8 3 20 -7 46 -13 59 -12 24z"/>
<path d="M4891 4650 c0 -8 6 -28 14 -45 17 -39 18 -21 0 25 -7 19 -14 28 -14
20z"/>
<path d="M4462 4500 c0 -19 2 -27 5 -17 2 9 2 25 0 35 -3 9 -5 1 -5 -18z"/>
<path d="M4472 4440 c0 -14 2 -19 5 -12 2 6 2 18 0 25 -3 6 -5 1 -5 -13z"/>
<path d="M4482 4395 c0 -11 3 -29 8 -40 11 -25 11 1 0 35 -6 20 -8 21 -8 5z"/>
<path d="M4501 4320 c0 -8 4 -24 9 -35 5 -13 9 -14 9 -5 0 8 -4 24 -9 35 -5
13 -9 14 -9 5z"/>
<path d="M5037 4219 c7 -7 15 -10 18 -7 3 3 -2 9 -12 12 -14 6 -15 5 -6 -5z"/>
<path d="M4934 4081 c4 -5 3 -11 -1 -14 -5 -2 -2 -2 5 -1 6 2 12 -4 12 -12 0
-10 -6 -14 -15 -10 -22 8 -18 -7 6 -22 12 -8 18 -9 15 -4 -3 5 1 15 9 22 12
10 15 9 16 -6 0 -13 2 -14 6 -5 3 7 -7 24 -22 37 -29 25 -40 30 -31 15z"/>
<path d="M4975 4080 c-3 -5 1 -10 10 -10 9 0 13 5 10 10 -3 6 -8 10 -10 10 -2
0 -7 -4 -10 -10z"/>
<path d="M4895 4050 c3 -5 8 -10 11 -10 2 0 4 5 4 10 0 6 -5 10 -11 10 -5 0
-7 -4 -4 -10z"/>
<path d="M4768 3953 c7 -3 16 -2 19 1 4 3 -2 6 -13 5 -11 0 -14 -3 -6 -6z"/>
<path d="M5945 3081 c-16 -4 -40 -13 -52 -19 -24 -13 -63 -72 -62 -93 0 -8 7
0 14 16 31 71 88 96 210 93 58 -1 61 -2 20 -5 -27 -2 -55 -10 -61 -18 -6 -8
-27 -15 -47 -17 -19 -1 -34 -5 -31 -9 2 -4 0 -10 -6 -14 -13 -8 -3 -25 13 -25
8 0 8 3 -1 9 -10 6 -10 10 1 20 12 9 14 5 13 -23 0 -19 -7 -41 -14 -48 -11
-11 -12 -10 -7 4 5 13 2 15 -14 11 -15 -4 -18 -9 -12 -17 11 -13 -25 -43 -44
-37 -5 1 -1 -7 9 -18 13 -15 15 -21 6 -21 -7 0 -10 -3 -7 -6 4 -4 13 -1 22 6
12 10 13 16 3 28 -11 13 -11 14 1 7 9 -5 12 -4 8 2 -3 5 0 10 8 10 8 0 15 -4
15 -9 0 -4 -3 -8 -8 -8 -4 0 -7 -16 -8 -35 0 -19 3 -32 8 -29 5 3 8 -2 6 -12
-2 -13 7 -21 37 -30 24 -7 31 -13 19 -13 -29 -1 -85 19 -79 29 2 4 -2 16 -10
26 -8 10 -15 14 -15 9 0 -6 6 -17 13 -24 10 -11 9 -13 -3 -9 -8 3 -25 22 -37
44 -13 21 -23 34 -23 28 0 -23 47 -80 80 -96 44 -23 133 -23 346 -3 136 13
219 25 432 62 19 3 49 20 68 38 28 26 34 40 34 72 0 52 -35 104 -80 120 -39
13 -712 17 -765 4z m248 -8 c-7 -2 -19 -2 -25 0 -7 3 -2 5 12 5 14 0 19 -2 13
-5z m-150 -290 c-7 -2 -19 -2 -25 0 -7 3 -2 5 12 5 14 0 19 -2 13 -5z"/>
<path d="M5822 2925 c0 -16 2 -22 5 -12 2 9 2 23 0 30 -3 6 -5 -1 -5 -18z"/>
</g>
</svg>
