<?xml version="1.0" standalone="no"?>
<!DOCTYPE svg PUBLIC "-//W3C//DTD SVG 20010904//EN"
 "http://www.w3.org/TR/2001/REC-SVG-20010904/DTD/svg10.dtd">
<svg version="1.0" xmlns="http://www.w3.org/2000/svg"
 width="583.000000pt" height="113.000000pt" viewBox="0 0 583.000000 113.000000"
 preserveAspectRatio="xMidYMid meet">
<g transform="translate(0.000000,113.000000) scale(0.100000,-0.100000)"
fill="#ffffff" stroke="none">
<path d="M2999 887 c-62 -18 -142 -70 -179 -117 -150 -190 -95 -452 118 -558
70 -34 83 -37 162 -37 80 0 92 3 163 38 158 78 228 226 192 402 -16 78 -33
125 -45 125 -3 0 -23 -18 -44 -39 -38 -38 -38 -40 -25 -78 29 -88 6 -207 -54
-272 -56 -60 -183 -88 -268 -59 -92 31 -162 115 -175 210 -14 103 50 214 152
264 75 37 161 31 237 -16 60 -37 91 -34 117 13 15 28 14 29 -20 58 -74 63
-232 94 -331 66z"/>
<path d="M880 505 l0 -225 24 -6 c13 -3 35 -4 47 -2 22 3 24 9 27 66 l3 62 63
0 c72 0 121 14 155 44 67 60 67 182 0 243 -35 31 -91 43 -211 43 l-108 0 0
-225z m244 122 c27 -20 32 -87 9 -116 -17 -21 -29 -24 -89 -25 l-69 -1 -3 64
c-2 35 -1 70 2 77 7 18 125 19 150 1z"/>
<path d="M1310 588 c1 -209 15 -252 100 -295 74 -38 186 -27 244 25 45 40 56
87 56 255 l0 157 -50 0 -50 0 0 -156 0 -156 -29 -29 c-39 -38 -97 -40 -138 -5
l-28 24 -5 159 -5 158 -47 3 -48 3 0 -143z"/>
<path d="M1800 506 c0 -144 4 -227 10 -231 6 -4 29 -4 50 0 l40 7 0 136 1 137
32 -36 c17 -20 55 -65 82 -100 100 -126 125 -149 161 -149 18 0 35 4 38 9 4 5
3 109 -1 230 l-6 221 -43 0 -43 0 -3 -144 -3 -145 -115 142 c-113 139 -117
142 -158 145 l-42 3 0 -225z"/>
<path d="M2287 723 c-3 -5 -4 -24 -3 -43 l1 -35 72 -3 73 -3 2 -182 3 -182 45
0 45 0 3 183 2 182 70 0 70 0 0 45 0 45 -189 0 c-105 0 -192 -3 -194 -7z"/>
<path d="M3557 723 c-4 -3 -7 -14 -7 -24 0 -14 14 -18 86 -24 47 -4 103 -5
125 -2 21 3 39 2 39 -2 0 -4 -29 -31 -65 -61 -101 -81 -107 -110 -22 -110 98
0 155 -54 125 -117 -31 -65 -138 -79 -233 -32 -44 22 -45 22 -60 3 -12 -17
-12 -21 8 -37 36 -29 125 -50 183 -44 104 11 164 62 164 139 0 74 -42 116
-133 132 l-38 7 36 29 c85 67 115 100 115 125 l0 25 -158 0 c-87 0 -162 -3
-165 -7z"/>
<path d="M4105 720 c-17 -5 -45 -24 -64 -42 -55 -54 -66 -83 -66 -183 0 -108
18 -154 77 -192 138 -92 338 29 272 164 -47 94 -182 120 -268 52 l-26 -20 0
33 c0 45 30 98 71 126 29 20 43 23 94 19 33 -2 68 -7 77 -11 11 -5 20 -1 28
13 9 19 7 23 -17 33 -37 15 -140 20 -178 8z m124 -225 c55 -28 64 -102 19
-145 -63 -58 -208 -15 -208 62 0 74 112 123 189 83z"/>
<path d="M4537 720 c-83 -25 -139 -112 -141 -219 0 -74 21 -126 71 -173 105
-100 285 -65 344 67 25 54 25 157 0 211 -22 49 -90 109 -133 118 -41 8 -107 6
-141 -4z m153 -58 c98 -48 112 -224 25 -301 -140 -122 -329 57 -242 229 42 84
134 114 217 72z"/>
<path d="M3053 625 c-37 -16 -63 -60 -63 -106 0 -46 56 -99 104 -99 52 0 90
23 111 66 15 32 15 40 3 72 -15 40 -68 82 -102 82 -12 -1 -35 -7 -53 -15z"/>
</g>
</svg>
